<?xml version="1.0" encoding="UTF-8"?>
<svg width="254px" height="200px" viewBox="0 0 254 200" version="1.1" xmlns="http://www.w3.org/2000/svg" xmlns:xlink="http://www.w3.org/1999/xlink">
    <!-- Generator: Sketch 52.3 (67297) - http://www.bohemiancoding.com/sketch -->
    <title>Shape</title>
    <desc>Created with Sketch.</desc>
    <g id="Page-1" stroke="none" stroke-width="1" fill="none" fill-rule="evenodd" opacity="0.05">
        <g id="list" transform="translate(-1.000000, -1866.000000)" fill="#FFFFFF">
            <g id="Group-4" transform="translate(1.000000, 1866.000000)">
                <path d="M293.048492,10.3098069 C293.048492,10.3209537 293.048492,10.3376738 293.031772,10.3711141 C293.304867,18.6698828 278.396065,31.5834134 278.396065,31.5834134 L205.016893,66.3557557 L180.533017,220.755211 L161.093054,228.301573 L151.038669,112.938099 L140.700042,96.3015476 L54.1844033,137.132158 L34.610679,197.112916 L30.3972007,199.782567 L19.1166716,142.577354 L13.2924854,141.262036 L11.8879927,140.933206 L12.5846657,139.528713 L15.2543166,134.217278 L-21.8365535,89.2289233 L-17.0991771,87.6516557 L41.6944499,110.541543 L128.115341,69.4991442 L121.800697,50.9509225 L38.9189047,-29.9467452 L57.0714162,-40.207345 L192.030908,38.7173448 L265.426801,3.99516292 C265.426801,3.99516292 293.048492,-0.742213419 293.048492,10.3098069 L293.048492,10.3098069 Z" id="Shape" transform="translate(135.605969, 94.047114) rotate(-15.000000) translate(-135.605969, -94.047114) "></path>
            </g>
        </g>
    </g>
</svg>