<?xml version="1.0" encoding="UTF-8"?>
<svg width="17px" height="15px" viewBox="0 0 17 15" version="1.1" xmlns="http://www.w3.org/2000/svg" xmlns:xlink="http://www.w3.org/1999/xlink">
    <!-- Generator: Sketch 52.3 (67297) - http://www.bohemiancoding.com/sketch -->
    <title>Shape Copy 9</title>
    <desc>Created with Sketch.</desc>
    <g id="Page-1" stroke="none" stroke-width="1" fill="none" fill-rule="evenodd">
        <g id="list" transform="translate(-701.000000, -1099.000000)" fill="#BDC0C8">
            <path d="M716.222603,1102.82407 C716.222603,1102.82462 716.222603,1102.82544 716.221782,1102.82708 C716.235184,1103.23434 715.503539,1103.86807 715.503539,1103.86807 L711.902477,1105.57451 L710.700937,1113.15162 L709.746927,1113.52196 L709.253511,1107.86053 L708.746145,1107.04409 L704.500415,1109.04784 L703.539839,1111.99138 L703.333064,1112.1224 L702.779475,1109.31507 L702.493655,1109.25052 L702.42473,1109.23438 L702.458919,1109.16545 L702.589931,1108.9048 L700.769707,1106.69701 L701.002193,1106.6196 L703.887474,1107.74292 L708.128555,1105.72877 L707.818665,1104.81852 L703.751264,1100.84849 L704.642094,1100.34496 L711.265193,1104.21816 L714.867076,1102.51418 C714.867076,1102.51418 716.222603,1102.2817 716.222603,1102.82407 L716.222603,1102.82407 Z" id="Shape-Copy-9" transform="translate(708.496155, 1106.933458) rotate(-334.000000) translate(-708.496155, -1106.933458) "></path>
        </g>
    </g>
</svg>